<svg xmlns="http://www.w3.org/2000/svg" width="43" height="43" viewBox="0 0 43 43">
  <g id="Grupo_7" data-name="Grupo 7" transform="translate(0.032 0.1)">
    <circle id="Elipse_4" data-name="Elipse 4" cx="21.5" cy="21.5" r="21.5" transform="translate(-0.032 -0.1)" fill="#fff" opacity="0.5"/>
    <g id="Grupo_4" data-name="Grupo 4" transform="translate(11.096 11.096)">
      <path id="Trazado_23" data-name="Trazado 23" d="M1246.956,49.261" transform="translate(-1233.217 -38.956)" fill="#100146"/>
      <path id="Trazado_24" data-name="Trazado 24" d="M1259.151,49.054a7.563,7.563,0,0,0-.479-2.5,5.284,5.284,0,0,0-3.014-3.014,7.615,7.615,0,0,0-2.5-.479c-1.1-.049-1.449-.063-4.248-.063s-3.149.013-4.248.063a7.615,7.615,0,0,0-2.5.479,5.281,5.281,0,0,0-3.014,3.014,7.575,7.575,0,0,0-.479,2.5c-.049,1.1-.061,1.45-.061,4.248s.012,3.149.063,4.248a7.522,7.522,0,0,0,.479,2.5,5.271,5.271,0,0,0,3.012,3.014,7.623,7.623,0,0,0,2.5.479c1.1.049,1.449.061,4.248.061s3.149-.012,4.248-.061a7.615,7.615,0,0,0,2.5-.479,5.279,5.279,0,0,0,3.014-3.014,7.607,7.607,0,0,0,.479-2.5c.049-1.1.062-1.45.062-4.248S1259.2,50.154,1259.151,49.054Zm-1.854,8.413a5.7,5.7,0,0,1-.355,1.914,3.412,3.412,0,0,1-1.956,1.955,5.681,5.681,0,0,1-1.912.355c-1.088.049-1.413.059-4.164.059s-3.077-.01-4.164-.059a5.7,5.7,0,0,1-1.914-.355,3.4,3.4,0,0,1-1.954-1.955,5.709,5.709,0,0,1-.355-1.914c-.049-1.088-.059-1.413-.059-4.164s.01-3.077.059-4.164a5.686,5.686,0,0,1,.355-1.912,3.409,3.409,0,0,1,1.956-1.956,5.681,5.681,0,0,1,1.912-.355c1.088-.049,1.413-.059,4.164-.059s3.077.01,4.164.061a5.651,5.651,0,0,1,1.912.354,3.4,3.4,0,0,1,1.956,1.956,5.676,5.676,0,0,1,.355,1.912c.05,1.088.059,1.413.059,4.164S1257.346,56.379,1257.3,57.467Z" transform="translate(-1238.606 -42.998)" fill="#100146"/>
      <path id="Trazado_25" data-name="Trazado 25" d="M1248.651,47.55a1.191,1.191,0,1,1,1.19-1.192,1.193,1.193,0,0,1-1.19,1.192Z" transform="translate(-1232.82 -41.581)" fill="#100146"/>
      <path id="Trazado_26" data-name="Trazado 26" d="M1248.211,46.67" transform="translate(-1232.407 -40.628)" fill="#100146"/>
      <path id="Trazado_27" data-name="Trazado 27" d="M1251.093,51.843" transform="translate(-1230.545 -37.29)" fill="#100146"/>
      <path id="Trazado_28" data-name="Trazado 28" d="M1247.126,46.045a5.475,5.475,0,1,0,5.475,5.475A5.475,5.475,0,0,0,1247.126,46.045Zm0,9.027a3.553,3.553,0,1,1,3.555-3.553A3.552,3.552,0,0,1,1247.126,55.072Z" transform="translate(-1236.823 -41.215)" fill="#100146"/>
    </g>
  </g>
</svg>
