<svg xmlns="http://www.w3.org/2000/svg" width="38" height="38" viewBox="0 0 38 38">
  <g id="Grupo_449" data-name="Grupo 449" transform="translate(-542 -27)">
    <circle id="Elipse_2" data-name="Elipse 2" cx="19" cy="19" r="19" transform="translate(542 27)" fill="#fff" opacity="0.5"/>
    <path id="Trazado_20" data-name="Trazado 20" d="M567.935-8.543A7.546,7.546,0,0,0,572.48-4,1.665,1.665,0,0,0,574.4-5.048h0a1.627,1.627,0,0,1,2.709-.612l2.447,2.447a1.745,1.745,0,0,1,0,2.36L577.9.807c-1.748,1.748-6.379-.175-10.487-4.282s-5.943-8.739-4.282-10.487l1.66-1.66a1.745,1.745,0,0,1,2.359,0l2.447,2.447a1.628,1.628,0,0,1-.612,2.709h0A1.584,1.584,0,0,0,567.935-8.543Z" transform="translate(-10.505 52.268)" fill="#100146"/>
  </g>
</svg>
