<svg xmlns="http://www.w3.org/2000/svg" xmlns:xlink="http://www.w3.org/1999/xlink" width="386.805" height="104.49" viewBox="0 0 386.805 104.49">
  <defs>
    <linearGradient id="linear-gradient" x1="0.146" y1="0.833" x2="0.411" y2="0.517" gradientUnits="objectBoundingBox">
      <stop offset="0" stop-color="#cbcbca"/>
      <stop offset="1" stop-color="#fff"/>
    </linearGradient>
  </defs>
  <g id="Grupo_278" data-name="Grupo 278" transform="translate(-78.417 -106.252)">
    <path id="Trazado_1" data-name="Trazado 1" d="M331.564,37.685a49.123,49.123,0,0,1,26.215,81.387c-.106,6.305,1.215,16.339,9.674,22.082,0,0-17.895-1.727-28.148-9.53a49.118,49.118,0,1,1-7.742-93.938Z" transform="translate(-194.098 69.589)" fill="#00d0b6"/>
    <g id="Grupo_1" data-name="Grupo 1" transform="translate(201.206 132.432)">
      <path id="Trazado_2" data-name="Trazado 2" d="M253.744,115.635h2.525a2.1,2.1,0,0,1,2.278,2.745l-3.321,18.576c-.768,4.225-2.99,6.147-7.38,6.147-4.364,0-6.806-1.893-7.574-6.119l-2.607-12.979c-.054-.275-.11-.413-.3-.413s-.3.138-.357.413l-2.553,12.979c-.85,4.225-3.238,6.119-7.574,6.119-4.39,0-6.694-1.921-7.408-6.147l-3.293-18.576a2.1,2.1,0,0,1,2.278-2.745h2.5a2.523,2.523,0,0,1,2.744,2.278l2.8,16.107c.247,1.428.493,1.811,1.29,1.811.768,0,.961-.357,1.262-1.783l2.717-13.474c.686-3.54,2.635-4.939,5.6-4.939s4.829,1.4,5.569,4.939l2.717,13.474c.273,1.426.493,1.783,1.29,1.783.768,0,.987-.383,1.289-1.811l2.8-16.107A2.5,2.5,0,0,1,253.744,115.635Z" transform="translate(-216.119 -103.671)" fill="#fff"/>
      <path id="Trazado_3" data-name="Trazado 3" d="M267.551,131.763l-11.607,1.207c.987,3.073,3.484,4.171,7.133,4.171a27.3,27.3,0,0,0,6.285-.878c1.783-.411,2.854.357,2.854,2.14v.824a2.641,2.641,0,0,1-2.14,2.826,32.4,32.4,0,0,1-8.342,1.207c-8.314,0-13.885-4.528-13.885-13.967,0-8.918,4.72-13.994,13.939-13.994,7.739,0,12.321,3.622,12.321,10.482C274.108,129.623,272.49,131.242,267.551,131.763Zm-.659-6.7c0-2.607-1.591-4.007-5.1-4.007-3.814,0-5.844,1.729-6.255,6.367l9.466-.961C266.59,126.3,266.891,126,266.891,125.067Z" transform="translate(-201.248 -103.828)" fill="#fff"/>
      <path id="Trazado_4" data-name="Trazado 4" d="M268.814,139.308v-.768c0-1.757,1.043-2.58,2.826-2.25,6.393,1.234,12.952,1.619,12.952-1.428,0-1.179-.852-1.839-2.689-2.332l-5.763-1.482c-5.378-1.372-7.683-4.061-7.683-7.765,0-7.711,9.961-9.357,19.592-6.97a2.623,2.623,0,0,1,2.168,2.827v.658c0,1.783-1.043,2.551-2.827,2.168-5.323-1.153-11.635-1.426-11.635,1.1,0,.906.714,1.536,1.949,1.839l6.174,1.592c5.378,1.372,7.984,4.005,7.984,8.176,0,8.479-11.112,10.043-20.908,7.464A2.64,2.64,0,0,1,268.814,139.308Z" transform="translate(-191.589 -103.827)" fill="#fff"/>
      <path id="Trazado_5" data-name="Trazado 5" d="M287.87,111.742c0-2.633,1.426-4.253,4.253-4.253,2.852,0,4.252,1.62,4.252,4.253s-1.4,4.2-4.252,4.2C289.3,115.941,287.87,114.377,287.87,111.742Z" transform="translate(-182.49 -107.489)" fill="#00d0b6"/>
      <rect id="Rectángulo_2" data-name="Rectángulo 2" width="7.766" height="26.973" rx="1.719" transform="translate(105.736 11.964)" fill="#fff"/>
      <path id="Trazado_6" data-name="Trazado 6" d="M312.964,123.888H305.5v10.757c0,2.8,1.234,3.979,4.253,3.979,1.454,0,2.387-.3,3.347-.3,1.7,0,2.36.659,2.36,2V141.7a2.466,2.466,0,0,1-2.031,2.688c-8.725,2.086-15.7-.137-15.7-9.74V113.9a2.286,2.286,0,0,1,2.525-2.525h2.717A2.286,2.286,0,0,1,305.5,113.9v3.732h7.464a2.285,2.285,0,0,1,2.523,2.525v1.207A2.285,2.285,0,0,1,312.964,123.888Z" transform="translate(-177.867 -105.668)" fill="#fff"/>
      <path id="Trazado_7" data-name="Trazado 7" d="M331.841,131.763l-11.607,1.207c.988,3.073,3.485,4.171,7.135,4.171a27.307,27.307,0,0,0,6.285-.878c1.783-.411,2.854.357,2.854,2.14v.824a2.642,2.642,0,0,1-2.141,2.826,32.389,32.389,0,0,1-8.342,1.207c-8.314,0-13.884-4.528-13.884-13.967,0-8.918,4.719-13.994,13.939-13.994,7.737,0,12.32,3.622,12.32,10.482C338.4,129.623,336.78,131.242,331.841,131.763Zm-.658-6.7c0-2.607-1.592-4.007-5.1-4.007-3.814,0-5.845,1.729-6.257,6.367l9.467-.961C330.882,126.3,331.183,126,331.183,125.067Z" transform="translate(-171.114 -103.828)" fill="#fff"/>
      <path id="Trazado_8" data-name="Trazado 8" d="M355.043,115.635h2.579a2.286,2.286,0,0,1,2.525,2.525v25.354c0,7.272-5.707,10.566-13.089,10.566a29.983,29.983,0,0,1-7.41-.988,2.624,2.624,0,0,1-2.14-2.827v-1.015c0-1.783,1.043-2.579,2.8-2.194a27.946,27.946,0,0,0,5.926.768c3.706,0,6.285-1.235,6.285-4.309v-.576c-1.345.11-2.635.165-3.842.165-9.6,0-15.311-3.512-15.311-13.967V118.16a2.285,2.285,0,0,1,2.525-2.525h2.579a2.286,2.286,0,0,1,2.525,2.525v10.51c0,6.173,2.14,8.012,7.464,8.012a38.555,38.555,0,0,0,4.061-.247V118.16A2.285,2.285,0,0,1,355.043,115.635Z" transform="translate(-161.166 -103.671)" fill="#fff"/>
      <path id="Trazado_9" data-name="Trazado 9" d="M355.094,129.293c0-8.918,4.913-13.994,13.885-13.994s13.885,5.076,13.885,13.994c0,8.891-4.911,13.967-13.885,13.967S355.094,138.184,355.094,129.293Zm20.032,0c0-5.323-2.03-7.573-6.146-7.573s-6.146,2.25-6.146,7.573c0,5.27,2.031,7.546,6.146,7.546S375.126,134.562,375.126,129.293Z" transform="translate(-150.982 -103.828)" fill="#fff"/>
      <path id="Trazado_10" data-name="Trazado 10" d="M399.394,115.635h2.579a2.286,2.286,0,0,1,2.525,2.525V130.4c0,9.851-4.967,12.7-13.5,12.7s-13.5-2.854-13.5-12.7V118.16a2.285,2.285,0,0,1,2.525-2.525H382.6a2.285,2.285,0,0,1,2.525,2.525v12.349c0,4.829,1.757,6.173,5.873,6.173s5.872-1.344,5.872-6.173V118.16A2.285,2.285,0,0,1,399.394,115.635Z" transform="translate(-140.482 -103.671)" fill="#fff"/>
    </g>
    <g id="Grupo_2" data-name="Grupo 2" transform="translate(94.726 130.633)">
      <path id="Trazado_11" data-name="Trazado 11" d="M342.854,64.355H331.067c-1.548,0-2.413,1.281-2.413,3.569v3.839c0,2.288.865,3.567,2.413,3.567h2.923L331.31,90.753c-.433,2.049-.749,2.6-1.852,2.6-1.141,0-1.457-.513-1.852-2.561l-3.9-19.344c-1.063-5.083-3.744-7.092-8-7.092s-7.051,2.009-8.037,7.092l-3.9,19.344c-.433,2.049-.709,2.561-1.811,2.561-1.144,0-1.5-.551-1.852-2.6l-2.679-15.423h3.493c1.586,0,2.473-1.279,2.473-3.567V67.924c0-2.288-.887-3.569-2.473-3.569H288.564c-2.482,0-3.7,1.5-3.269,3.941l4.728,26.673c1.024,6.067,4.334,8.824,10.636,8.824,6.224,0,9.652-2.717,10.874-8.786L315.2,76.373c.078-.4.235-.592.511-.592s.355.2.433.592l3.744,18.633c1.1,6.069,4.609,8.786,10.874,8.786,6.3,0,9.5-2.757,10.6-8.824L346.124,68.3C346.557,65.853,345.336,64.355,342.854,64.355Z" transform="translate(-282.876 -48.066)" fill="url(#linear-gradient)"/>
      <path id="Trazado_12" data-name="Trazado 12" d="M283.62,59.275c0-3.723,2.018-6.011,6.011-6.011,4.033,0,6.011,2.288,6.011,6.011s-1.978,5.934-6.011,5.934C285.638,65.209,283.62,63,283.62,59.275Z" transform="translate(-283.62 -53.264)" fill="#fff"/>
      <path id="Trazado_13" data-name="Trazado 13" d="M320.128,59.275c0-3.723,2.017-6.011,6.011-6.011,4.033,0,6.011,2.288,6.011,6.011s-1.978,5.934-6.011,5.934C322.145,65.209,320.128,63,320.128,59.275Z" transform="translate(-266.509 -53.264)" fill="#fff"/>
      <path id="Trazado_14" data-name="Trazado 14" d="M309.6,99.787c-7.515.4-8.842-5.628-9.642-9.908l-2.528-14.549h3.493c1.586,0,2.473-1.279,2.473-3.567V67.924c0-2.288-.887-3.569-2.473-3.569H288.564c-2.482,0-3.7,1.5-3.269,3.941l4.728,26.673c1.024,6.067,4.334,8.824,10.636,8.824,4.277,0,7.235-1.284,9.062-4.055C309.681,99.755,309.638,99.767,309.6,99.787Z" transform="translate(-282.876 -48.066)" fill="#fff"/>
    </g>
  </g>
</svg>
